<svg id="SvgjsSvg1001" width="24" height="24" xmlns="http://www.w3.org/2000/svg" version="1.1" xmlns:xlink="http://www.w3.org/1999/xlink" xmlns:svgjs="http://svgjs.com/svgjs"><defs id="SvgjsDefs1002"></defs><g id="SvgjsG1008" transform="matrix(1,0,0,1,0,0)"><svg xmlns="http://www.w3.org/2000/svg" width="24" height="24" viewBox="0 0 24 24"><path fill="#ffd96a" d="M 22.019531 0 L 5.1875 0 C 4.976562 0 4.808594 0.167969 4.808594 0.375 C 4.808594 0.582031 4.976562 0.75 5.1875 0.75 L 22.019531 0.75 C 22.699219 0.75 23.25 1.300781 23.25 1.980469 L 23.25 22.019531 C 23.25 22.699219 22.699219 23.25 22.019531 23.25 L 15.179688 23.25 L 15.179688 18.414062 C 15.179688 18.207031 15.011719 18.039062 14.804688 18.039062 C 14.597656 18.039062 14.429688 18.207031 14.429688 18.414062 L 14.429688 23.25 L 11.976562 23.25 L 11.976562 14.40625 C 11.976562 14.199219 11.808594 14.027344 11.597656 14.027344 L 9.972656 14.027344 L 9.972656 11.574219 L 11.597656 11.574219 C 11.808594 11.574219 11.976562 11.40625 11.976562 11.199219 L 11.976562 8.792969 C 11.976562 6.347656 13.964844 4.359375 16.410156 4.359375 L 19.238281 4.359375 L 19.238281 6.8125 L 16.410156 6.8125 C 15.316406 6.8125 14.429688 7.703125 14.429688 8.792969 L 14.429688 11.199219 C 14.429688 11.40625 14.597656 11.574219 14.804688 11.574219 L 19.238281 11.574219 L 19.238281 14.027344 L 14.804688 14.027344 C 14.597656 14.027344 14.429688 14.199219 14.429688 14.40625 L 14.429688 16.808594 C 14.429688 17.015625 14.597656 17.1875 14.804688 17.1875 C 15.011719 17.1875 15.183594 17.015625 15.183594 16.808594 L 15.183594 14.78125 L 19.617188 14.78125 C 19.824219 14.78125 19.992188 14.613281 19.992188 14.40625 L 19.992188 11.199219 C 19.992188 10.992188 19.824219 10.824219 19.617188 10.824219 L 15.183594 10.824219 L 15.183594 8.792969 C 15.183594 8.117188 15.730469 7.566406 16.410156 7.566406 L 19.617188 7.566406 C 19.824219 7.566406 19.992188 7.398438 19.992188 7.191406 L 19.992188 3.984375 C 19.992188 3.777344 19.824219 3.609375 19.617188 3.609375 L 16.410156 3.609375 C 13.550781 3.609375 11.222656 5.933594 11.222656 8.792969 L 11.222656 10.824219 L 9.59375 10.824219 C 9.386719 10.824219 9.21875 10.992188 9.21875 11.199219 L 9.21875 14.40625 C 9.21875 14.613281 9.386719 14.78125 9.59375 14.78125 L 11.222656 14.78125 L 11.222656 23.25 L 1.980469 23.25 C 1.300781 23.25 0.75 22.699219 0.75 22.019531 L 0.75 1.980469 C 0.75 1.300781 1.300781 0.75 1.980469 0.75 L 3.582031 0.75 C 3.789062 0.75 3.957031 0.582031 3.957031 0.375 C 3.957031 0.167969 3.789062 0 3.582031 0 L 1.980469 0 C 0.886719 0 0 0.886719 0 1.980469 L 0 22.019531 C 0 23.113281 0.886719 24 1.980469 24 L 22.019531 24 C 23.113281 24 24 23.113281 24 22.019531 L 24 1.980469 C 24 0.886719 23.113281 0 22.019531 0 Z M 22.019531 0 " class="colorffbf66 svgShape"></path></svg></g></svg>